<svg class="Icon Header-menuToggleIcon" viewBox="0 0 25 12" fill="none" xmlns="http://www.w3.org/2000/svg">
<path d="M24 5.00002C24.5523 5.00002 25 5.44773 25 6.00002C25 6.5523 24.5523 7.00002 24 7.00002L1 7.00002C0.447715 7.00002 -4.76253e-07 6.5523 -5.24535e-07 6.00002C-5.72818e-07 5.44773 0.447715 5.00002 0.999999 5.00002L24 5.00002Z" fill="#003D52"/>
<path d="M24 5.00002C24.5523 5.00002 25 5.44773 25 6.00002C25 6.5523 24.5523 7.00002 24 7.00002L1 7.00002C0.447715 7.00002 -4.76253e-07 6.5523 -5.24535e-07 6.00002C-5.72818e-07 5.44773 0.447715 5.00002 0.999999 5.00002L24 5.00002Z" fill="#003D52"/>
<path d="M18.5 10C19.0523 10 19.5 10.4477 19.5 11C19.5 11.5523 19.0523 12 18.5 12L1 12C0.447716 12 -3.91405e-08 11.5523 -8.74228e-08 11C-1.35705e-07 10.4477 0.447716 10 1 10L18.5 10Z" fill="#003D52"/>
<path d="M15 1.6133e-05C15.5523 1.60847e-05 16 0.447715 16 0.999978C16 1.55224 15.5523 1.99994 15 1.99994L0.999961 1.99994C0.447698 1.99994 -9.13372e-07 1.55224 -9.61653e-07 0.999979C-1.00993e-06 0.447716 0.447698 1.74052e-05 0.999961 1.73569e-05L15 1.6133e-05Z" fill="#003D52"/>
</svg>
