<svg class="Icon Header-menuToggleIcon" viewBox="0 0 25 15" fill="none" xmlns="http://www.w3.org/2000/svg">
<path d="M2.70711 0.707107C2.31658 0.316583 1.68342 0.316582 1.29289 0.707107L0.707106 1.29289C0.316582 1.68342 0.316583 2.31658 0.707107 2.70711L12.2929 14.2929C12.6834 14.6834 13.3166 14.6834 13.7071 14.2929L14.2929 13.7071C14.6834 13.3166 14.6834 12.6834 14.2929 12.2929L2.70711 0.707107Z" fill="white"/>
<path d="M12.2929 0.707107C12.6834 0.316583 13.3166 0.316582 13.7071 0.707107L14.2929 1.29289C14.6834 1.68342 14.6834 2.31658 14.2929 2.70711L2.70711 14.2929C2.31658 14.6834 1.68342 14.6834 1.29289 14.2929L0.707106 13.7071C0.316583 13.3166 0.316582 12.6834 0.707107 12.2929L12.2929 0.707107Z" fill="white"/>
</svg>
