<svg width="205" height="29" viewBox="0 0 205 29" fill="none" xmlns="http://www.w3.org/2000/svg">
<path d="M6.80399 23.7161C5.93999 23.7161 5.57999 23.1401 5.57999 22.0961V6.97609C5.57999 5.93209 5.86799 5.42809 6.76799 5.42809C7.66799 5.42809 7.99199 5.96809 7.99199 6.97609V11.2961H12.744V6.79609C12.744 3.73609 11.772 0.89209 7.19999 0.89209H6.22799C1.97999 0.89209 0.575989 3.73609 0.575989 6.97609V22.0961C0.575989 25.4441 1.61999 28.4321 6.22799 28.4321H7.19999C11.448 28.4321 12.744 25.4441 12.744 22.2401V16.1921H7.99199V22.0961C7.99199 23.0681 7.66799 23.7161 6.80399 23.7161Z" fill="white"/>
<path d="M20.8164 18.8921H18.9084L19.8444 9.67609L20.8164 18.8921ZM21.7884 28.0001H26.4324L22.7964 1.21609H17.1084L13.7244 28.0001H17.9724L18.4404 23.5001H21.3204L21.7884 28.0001Z" fill="white"/>
<path d="M27.6826 1.21609V28.0001H31.9306V13.3121L35.6386 28.0001H39.7066V1.21609H35.4586V14.8961L32.1826 1.21609H27.6826Z" fill="white"/>
<path d="M49.1965 28.0001H53.9845V17.4521L57.5845 1.21609H53.2645L51.6445 10.7201L50.0245 1.21609H45.2365L49.1965 17.6321V28.0001Z" fill="white"/>
<path d="M70.6697 7.69609C70.6697 3.59209 69.1577 0.89209 64.9457 0.89209H63.8657C59.7257 0.89209 58.1057 3.59209 58.1057 7.73209V21.8801C58.1057 26.0561 60.1217 28.3961 63.9017 28.3961H64.9817C68.5817 28.3961 70.6697 25.8041 70.6697 21.8801V7.69609ZM65.6657 22.0241C65.6657 22.8521 65.4137 23.6081 64.4417 23.6081C63.4337 23.6081 63.1097 22.8521 63.1097 22.0241V7.33609C63.1097 6.14809 63.4697 5.57209 64.4057 5.57209C65.2697 5.57209 65.6657 6.14809 65.6657 7.33609V22.0241Z" fill="white"/>
<path d="M79.2686 28.3961C82.6526 28.3961 84.8126 26.1641 84.8126 21.7721V1.21609H79.8806V21.9521C79.8806 22.9961 79.5566 23.6081 78.7286 23.6081C77.9006 23.6081 77.5406 22.9961 77.5406 21.9521V1.21609H72.6086V21.7721C72.6086 26.1641 74.5886 28.3961 78.0806 28.3961H79.2686Z" fill="white"/>
<path d="M91.276 28.0001H96.064V16.6961H98.584V28.0001H103.372V1.21609H98.584V11.4401H96.064V1.21609H91.276V28.0001Z" fill="white"/>
<path d="M111.725 18.8921H109.817L110.753 9.67609L111.725 18.8921ZM112.697 28.0001H117.341L113.705 1.21609H108.017L104.633 28.0001H108.881L109.349 23.5001H112.229L112.697 28.0001Z" fill="white"/>
<path d="M118.591 1.21609V28.0001H122.839V13.3121L126.547 28.0001H130.615V1.21609H126.367V14.8961L123.091 1.21609H118.591Z" fill="white"/>
<path d="M132.706 28.0001H139.51C143.434 28.0001 144.73 25.8761 144.73 22.0601V6.94009C144.73 2.87209 143.074 1.21609 139.51 1.21609H132.706V28.0001ZM137.494 5.46409H138.574C139.474 5.46409 139.834 5.96809 139.834 7.26409V21.6641C139.834 22.9601 139.51 23.5361 138.43 23.5361H137.494V5.46409Z" fill="white"/>
<path d="M146.75 1.21609V28.0001H156.614V23.1761H151.538V1.21609H146.75Z" fill="white"/>
<path d="M158.263 1.21609V28.0001H168.523V23.1761H163.051V16.5881H167.155V11.7641H163.051V5.93209H168.271V1.21609H158.263Z" fill="white"/>
<path d="M179.362 1.21609H174.574V28.0001H179.362V1.21609Z" fill="white"/>
<path d="M184.398 28.0001H189.186V5.93209H192.606V1.21609H180.978V5.93209H184.398V28.0001Z" fill="white"/>
<path d="M200.705 21.9881V18.6761C200.705 16.9841 200.885 16.6241 201.605 15.6161L203.369 13.2041C204.701 11.4761 204.989 10.1441 204.989 7.98409V6.11209C204.989 2.94409 203.693 0.89209 199.805 0.89209H198.833C194.729 0.89209 193.937 3.37609 193.937 6.36409V10.6121H198.401V6.50809C198.401 5.60809 198.581 5.24809 199.301 5.24809C199.985 5.24809 200.201 5.57209 200.201 6.50809V8.27209C200.201 9.46009 200.129 10.2521 199.445 11.3321L198.185 13.3481C197.177 14.9681 196.961 15.6521 196.961 17.3801V21.9881H200.705ZM200.993 22.8161H196.709V28.0001H200.993V22.8161Z" fill="white"/>
</svg>
