<svg viewBox="0 0 133 35" fill="none" xmlns="http://www.w3.org/2000/svg">
<path d="M62.1873 0.093605H37.6431V4.33911H47.7477V34.5259H52.0515V4.33911H62.1873V0.093605Z" fill="#A9A9A9"/>
<path d="M24.7314 0.093605C15.3129 0.093605 10.6036 11.1444 10.2606 12.0185C10.2294 12.0497 2.08954 29.9058 0 34.4635H4.70926L11.5392 19.4481H28.4738C28.4738 25.1296 28.4738 30.9984 28.4738 34.4635H32.7465V0.093605H24.7314ZM28.4427 15.0465H13.5352L14.159 13.7042C14.159 13.7042 18.0262 4.40154 24.7002 4.40154H28.4427V15.0465Z" fill="#A9A9A9"/>
<path d="M99.8613 0.093605V34.4635H104.134C104.134 30.9984 104.134 25.1296 104.134 19.4481H121.069L127.899 34.4635H132.608C130.518 29.9058 122.378 12.0497 122.347 12.0185C121.973 11.1132 117.264 0.093605 107.845 0.093605H99.8613ZM103.916 4.15181H107.627C114.332 4.15181 118.168 13.4545 118.168 13.4545L118.792 14.7968H103.916V4.15181Z" fill="#A9A9A9"/>
<path d="M90.5989 14.9217H73.4772C72.1674 14.9217 71.1382 15.9518 71.1382 17.2629C71.1382 18.5428 72.1985 19.573 73.5084 19.573H90.5989C91.9088 19.573 92.9692 18.5428 92.9692 17.2629C92.9692 15.9518 91.9088 14.9217 90.5989 14.9217Z" fill="#A9A9A9"/>
<path d="M62.2188 17.3254C62.2188 7.7418 69.9532 0 79.4964 0C84.2368 0 88.9149 2.2164 92.2519 5.80635H92.2207C92.5638 6.18095 92.7821 6.71164 92.7821 7.27355C92.7821 8.49101 91.8153 9.45873 90.599 9.45873C89.9753 9.45873 89.4139 9.17778 89.0085 8.77196C86.5135 6.05609 82.9582 4.4328 79.5276 4.4328C72.3857 4.40159 66.6161 10.1767 66.6161 17.3254C66.6161 24.4741 72.3857 30.2492 79.4964 30.2492C82.927 30.2492 86.4823 28.5947 88.9773 25.9101C89.3827 25.473 89.9441 25.2233 90.5678 25.2233C91.7841 25.2233 92.7509 26.191 92.7509 27.4085C92.7509 27.9704 92.5326 28.5011 92.1896 28.8757H92.2207C88.9149 32.4656 84.2057 34.682 79.4964 34.682C69.9843 34.6508 62.2188 26.8778 62.2188 17.3254Z" fill="#A9A9A9"/>
</svg>
